<?xml version="1.0" standalone="no"?>
<!DOCTYPE svg PUBLIC "-//W3C//DTD SVG 20010904//EN"
 "http://www.w3.org/TR/2001/REC-SVG-20010904/DTD/svg10.dtd">
<svg version="1.0" xmlns="http://www.w3.org/2000/svg"
 width="210.000000pt" height="210.000000pt" viewBox="0 0 210.000000 210.000000"
 preserveAspectRatio="xMidYMid meet">
<metadata>
Created by potrace 1.11, written by Peter Selinger 2001-2013
</metadata>
<g transform="translate(0.000000,210.000000) scale(0.100000,-0.100000)"
fill="#000000" stroke="none">
<path d="M895 2090 c-197 -43 -358 -182 -424 -365 -22 -62 -29 -93 -30 -133
-1 -14 -32 -54 -88 -110 -123 -122 -170 -220 -180 -372 -10 -159 40 -305 144
-419 103 -114 225 -172 385 -185 85 -7 87 -6 103 18 19 29 42 111 39 143 -2
33 -18 48 -66 63 -140 44 -227 126 -258 241 -41 152 17 295 155 384 63 40 93
95 101 183 11 139 75 233 194 289 99 47 182 31 268 -50 65 -62 98 -137 106
-240 3 -31 12 -73 22 -92 16 -35 70 -85 91 -85 24 0 112 -112 133 -167 20 -54
27 -138 16 -190 -16 -75 -84 -172 -150 -213 -40 -24 -130 -47 -214 -54 -164
-13 -311 -146 -340 -306 -4 -25 -8 -118 -7 -208 1 -133 3 -165 17 -178 19 -19
151 -37 226 -31 84 6 86 10 87 199 2 180 5 200 43 240 30 32 64 44 147 53 223
22 404 155 483 355 31 77 41 140 37 234 -7 152 -69 283 -187 390 -72 66 -73
67 -90 147 -44 205 -188 368 -379 430 -35 11 -80 22 -99 24 -90 10 -249 13
-285 5z"/>
</g>
</svg>
