<svg xmlns="http://www.w3.org/2000/svg" viewBox="0 0 500 500"><g id="freepik--background-complete--inject-146"><path d="M457.25,223H336.31s12-32.75,30.44-32.75S391,212.83,391,212.83s12.45-12.29,22.68-12.29,19.12,16.23,19.12,16.23S447.25,208.05,457.25,223Z" style="fill:#ebebeb"></path><path d="M355.43,152H298.9s12.63-18.3,22.58-18.3,12.89,12.2,12.89,12.2,7-5.69,13.53-4.68S355.43,152,355.43,152Z" style="fill:#ebebeb"></path><path d="M160.92,262H104.4S117,243.66,127,243.66s12.89,12.2,12.89,12.2,7-5.7,13.53-4.68S160.92,262,160.92,262Z" style="fill:#ebebeb"></path><path d="M152.84,165.82H42.75S57.82,132.16,74,130.05s23.84,25,23.84,25,10.41-9.59,18.59-9.59,14.49,12.62,14.49,12.62S147.23,149.46,152.84,165.82Z" style="fill:#ebebeb"></path><path d="M274.15,88.78H199.77S212.55,64.39,226.41,64s21.14,18.45,21.14,18.45S269.11,65.19,274.15,88.78Z" style="fill:#ebebeb"></path></g><g id="freepik--Shadow--inject-146"><path d="M434.92,446.29c0,4.34-32.15,7.86-71.8,7.86s-71.81-3.52-71.81-7.86,32.15-7.87,71.81-7.87S434.92,441.94,434.92,446.29Z" style="fill:#ebebeb"></path></g><g id="freepik--Plant--inject-146"><path d="M82.66,389.94c-5.71.2-12.08.52-16.81-3.18-4.37-3.42-8.27-8.52-7.69-14.37.17-1.67.55-2.7,2.34-2,2.72,1.08,4.82,4.09,6.71,6.2a58.61,58.61,0,0,0,7.92,7.51c2,1.56,4.23,2.91,6.3,4.42l.78.57.29.22h.16a.28.28,0,0,1,.24.12.32.32,0,0,1-.24.48Z" style="fill:#455a64"></path><path d="M82.94,389.56c-5-.09-10.44.14-14.45-3.27a23.31,23.31,0,0,1-4.67-5.66c-.58-.95-2.32-3.77-1.6-4.89,1.31-2,7.29,6.24,8.12,7a24.6,24.6,0,0,0,11.09,5.76l.78.57a27.31,27.31,0,0,1-8.33-3.2c-3.57-2.12-5.55-5.26-8.34-8.2-.6-.64-2.42-2.77-3.1-1.44-.45.87,1.23,3.63,1.59,4.22a23.13,23.13,0,0,0,4.41,5.39c4,3.5,9.4,3.37,14.46,3.58A.3.3,0,0,1,82.94,389.56Z" style="fill:#fff"></path><path d="M85.81,393.42c0,.22-.09.44-.14.66v0a.19.19,0,0,1-.11.12.25.25,0,0,1-.3-.12.15.15,0,0,1,0-.13l0-.09.06-.2h0s0-.05,0-.07c-1-3.78-1.4-7.71-2.47-11.49-1-3.61-2.28-7.15-3-10.83-.46-2.33-2.07-14,3.06-12.53,2.28.65,3.84,3.94,4.7,5.91A23.89,23.89,0,0,1,89.48,373C89.86,380.14,87.25,386.61,85.81,393.42Z" style="fill:#455a64"></path><path d="M87.46,378.91a28.1,28.1,0,0,0-.83-7.91c-.23-.89-1.34-5.18-2.8-5.07-.93.06-1.09,1.91-1.17,2.52-.33,2.59.51,5.24,1,7.77a106,106,0,0,1,1.89,15.56c0,.33-.1.67-.13,1s-.07.55-.11.83a2.4,2.4,0,0,0,0,.28l0,.22a.24.24,0,0,0,.3.12l.09-.64c0,.18,0,.34,0,.52,0,0,0,0,0,0,0-.18.07-.36.1-.54l0-.12c0-.29,0-.58,0-.87A116.48,116.48,0,0,0,87.46,378.91Zm-1.74,11.77c-.14-3.06-.44-6.11-.88-9.13-.34-2.45-.8-4.86-1.32-7.27a25.17,25.17,0,0,1-.65-4.13c-.05-1.06.11-5,2.13-2.56,1.46,1.77,1.82,5.54,2,7.71a38.84,38.84,0,0,1-.14,7.23C86.58,385.26,86.13,388,85.72,390.68Z" style="fill:#fff"></path><path d="M88.89,409.09h0l-.21,0c-5.22-.26-12.18.23-16.52-3.23-3.21-2.55-6.36-7.6-5.35-11.87,1.15-4.83,7.67,1,9.39,2.36A159.59,159.59,0,0,1,89,408.83l.07.09v0C89.11,409,89,409.07,88.89,409.09Z" style="fill:#455a64"></path><path d="M89.07,408.94l-.91-.56c-3.43-2.16-6.78-4.48-10-6.95-.82-.62-6.7-5.85-7.58-4-.53,1.13,1.41,3.43,2,4.21a16.15,16.15,0,0,0,4,3.55c3.48,2.17,7.71,2.63,11.65,3.68a5.54,5.54,0,0,1,.55.14l.1.06h0C89,409.07,89.11,409,89.07,408.94Zm-10.34-3a16.33,16.33,0,0,1-4.5-3.05c-.88-.83-4-4-3.15-5.24.44-.68.8-.32,1.63.09a9.4,9.4,0,0,1,1.11.64c.88.57,1.68,1.24,2.5,1.89,1.43,1.15,2.88,2.26,4.37,3.34,2.43,1.77,4.92,3.43,7.47,5C85,407.69,81.72,407.31,78.73,406Z" style="fill:#fff"></path><path d="M98.43,398.33a31,31,0,0,1-9,15.64l-.1.06a.26.26,0,0,1-.27-.1.22.22,0,0,1,0-.3l.26-.27c.87-7.1,1.82-14.16,2.55-21.28.17-1.68,1.49-12.36,4.77-10.62,2,1.07,2.16,5.45,2.33,7.42A31.26,31.26,0,0,1,98.43,398.33Z" style="fill:#455a64"></path><path d="M96.53,388.82c-.18-.6-.49-1.21-1.15-.79-1.27.79-1.78,5.82-2,7.21-.88,5.72-2.23,11.23-3.61,16.84-.12.47-.23.94-.35,1.42l-.32.43a.22.22,0,0,0,.27.09,1,1,0,0,1,0-.14l.43-.57h0A36.61,36.61,0,0,0,95,403.22a35,35,0,0,0,1.52-7C96.79,394,97.2,391,96.53,388.82Zm-6.7,24.1c-.06.1-.13.18-.2.28q.11-.29.18-.57a104.22,104.22,0,0,0,3.2-13c.38-2.24.62-4.5,1.08-6.72.19-.94.65-3.62,1.43-4.05s.76.61.84,1.21c.06.43.06,1.22.07,1.63A36,36,0,0,1,89.83,412.92Z" style="fill:#fff"></path><path d="M90.34,429.28h-1l-.06-2.75c-.13-3.71-.28-7.42-.5-11.13-.12-2.12-.28-4.22-.5-6.3a1.48,1.48,0,0,1,0-.21c0-.17,0-.34-.07-.51a5.17,5.17,0,0,0-.07-.55,44.89,44.89,0,0,0-3.58-13.64c-.67-1.44-1.39-2.85-2.15-4.25l-.23-.4a.27.27,0,0,0-.06-.1c-.07-.15-.15-.28-.23-.42s-.11-.2-.18-.31c-2.41-4.25-5.18-8.31-7.8-12.41-.75-1.16-1.5-2.34-2.24-3.52a2.39,2.39,0,0,1-.13-.21c-.06-.08-.11-.17-.17-.26-3.29-5.2-6.53-10.44-9.95-15.54-.13-.18.18-.35.3-.17,2.31,3.39,4.7,6.71,7.08,10.06.31.44.62.9.94,1.34.63.88,1.25,1.76,1.87,2.65,1.24,1.77,2.46,3.54,3.66,5.34a149.41,149.41,0,0,1,9.61,15.55c.21.41.4.82.6,1.23s.25.52.35.77.28.6.41.9a48.1,48.1,0,0,1,3.51,16.45c0,.39.06.79.08,1.19,0,.17,0,.36,0,.55s0,.19,0,.29,0,.25,0,.38h0v.28c0,.34,0,.67.05,1,.15,3.71.25,7.42.33,11.12C90.25,426.91,90.3,428.09,90.34,429.28Z" style="fill:#455a64"></path><path d="M59.17,362.07c-2.86-3.84-6.53-11.78-2.31-15.9a4.48,4.48,0,0,1,6-.44c2.23,1.61,3.23,4.65,4,7.17,1.93,6.73,3.21,13.58,5.62,20.18,0,0,.2.56.26.7s-.17.2-.22.06l-.24-.64C67.65,369.9,62.56,366.63,59.17,362.07Z" style="fill:#455a64"></path><path d="M72.44,373.09l-.07-.11a48.77,48.77,0,0,1-2.68-5,97.62,97.62,0,0,1-4.11-11c-.46-1.44-2.51-8.51-5-5.69-1.07,1.19-.92,3.29-.75,4.74a17.86,17.86,0,0,0,2.2,6.62c2.27,4.08,5.79,7.17,9.49,9.92L72,373c0,.06.07.11.1.18l.07.11a.13.13,0,0,0,.06.05.17.17,0,0,0,.23-.09A.22.22,0,0,0,72.44,373.09Zm-1.12-.78a38,38,0,0,1-8-8.07,20.46,20.46,0,0,1-2.62-5.35,16.26,16.26,0,0,1-.56-2.6,10.92,10.92,0,0,1-.12-2c.05-1.45.65-3,1.51-3.19,1.06-.19,1.41.43,2.11,1.65a12.49,12.49,0,0,1,.63,1.27c.47,1.09.83,2.23,1.19,3.35.59,1.87,1.19,3.73,1.87,5.57.45,1.25.93,2.49,1.47,3.7a49.27,49.27,0,0,0,3.13,6.09Z" style="fill:#fff"></path><path d="M417.83,372.82c-.48,3.81-1.2,7.59-2,11.34-.43,2.14-.89,4.27-1.32,6.41-.48,2.35-1.18,4.74-.54,7.12h0a1.35,1.35,0,0,1,0,.33l0,0a.28.28,0,0,1-.49-.08,1.24,1.24,0,0,1,0-.16l0-.05a9.08,9.08,0,0,1-.82-2,50.46,50.46,0,0,1-1.9-5.51,48.24,48.24,0,0,1-1.85-11.76A40.16,40.16,0,0,1,410,367.93c.68-2.76,1.64-6.89,3.71-9,1.87-1.91,3.43,1.15,4,2.71C418.86,365.15,418.27,369.21,417.83,372.82Z" style="fill:#455a64"></path><path d="M414.41,364.73c-1.39,0-2.4,4.49-2.89,6.43a38.78,38.78,0,0,0-1.19,9.35,50.24,50.24,0,0,0,2.88,16.61c.07.21.14.44.22.65l0,.05a.83.83,0,0,0,0,.15.29.29,0,0,0,.5.09c-.09-.47-.16-.93-.22-1.4s-.09-.84-.12-1.26c-.38-4.56.28-9.22.85-13.75C415.19,376.34,416.26,364.74,414.41,364.73Zm-1,31.57c.07.62.17,1.23.29,1.83-.14-.44-.29-.88-.42-1.33a55.35,55.35,0,0,1-2.62-14.65,39.91,39.91,0,0,1,.61-8.38,37.84,37.84,0,0,1,1.08-4.38c.2-.6,1.21-4.36,2.06-4.17.61.13.75,3.51.76,3.58,0,.68,0,1.36,0,2,0,1.4-.11,2.8-.23,4.19-.26,3-.7,6-1.06,9A52.18,52.18,0,0,0,413.41,396.3Z" style="fill:#fff"></path><path d="M439.71,383.35c-2.55,5-6.85,8.79-11.28,12-2.38,1.75-4.84,3.39-7.26,5.08a39.67,39.67,0,0,0-6.27,4.82l-.24.26a10.59,10.59,0,0,0-1.3,1.79.14.14,0,0,1-.12.08,1.43,1.43,0,0,1-.08.22.05.05,0,0,1-.1,0l0-.25v0a.16.16,0,0,1,0-.19.59.59,0,0,0,0-.08,2,2,0,0,1,0-.24c.72-5.82,4.79-11.7,8.23-16.18s7.69-8.44,13-10.49c1.34-.51,4.38-1.93,5.73-.84S440.26,382.29,439.71,383.35Z" style="fill:#455a64"></path><path d="M435.77,383.37c-1.21-1.21-4.78,1.78-5.67,2.48a59.7,59.7,0,0,0-7.39,7.18,53.21,53.21,0,0,0-9.43,13.65h0l-.12.16c0,.09,0,.17,0,.25a.3.3,0,0,0,0,.08.16.16,0,0,0,0,.2c.07-.07.12-.15.18-.21.44-.55.91-1.08,1.39-1.6l.24-.26a116.72,116.72,0,0,1,11-9.75,54.51,54.51,0,0,0,7.35-7.14C433.85,387.74,436.79,384.39,435.77,383.37ZM434.66,386c-3,5-8.23,8.64-12.66,12.28a60.4,60.4,0,0,0-8.4,8A56.7,56.7,0,0,1,422.32,394a76,76,0,0,1,6-6.17,30.15,30.15,0,0,1,3.64-2.91,11.88,11.88,0,0,1,2.46-1.33C436.11,383.11,435.17,385.18,434.66,386Z" style="fill:#fff"></path><path d="M412.55,419.21a.28.28,0,0,1-.26.14l.07.09a.09.09,0,0,1,0,.13.08.08,0,0,1-.12,0c-4.72-4.8-9.26-10.63-11.61-17a26.37,26.37,0,0,1-1.69-8.37c-.05-2-.15-5.9,1.52-7.33,3.37-2.87,6.45,9.3,6.9,11.13.84,3.35,1.39,6.76,2.16,10.11.85,3.68,2,7.29,3.06,10.89A.23.23,0,0,1,412.55,419.21Z" style="fill:#455a64"></path><path d="M412.55,419.2c-.18-.31-.36-.61-.53-.93A57,57,0,0,1,406,401.92a52,52,0,0,0-2.24-8.51c-.28-.67-1.12-3.27-2.23-2-.58.69-.1,5.6.13,6.87a35.76,35.76,0,0,0,2.74,8.36,59.22,59.22,0,0,0,7.73,12.55l.26.34a.09.09,0,0,0,0-.13l-.06-.08A.31.31,0,0,0,412.55,419.2Zm-6.84-10.45a41.73,41.73,0,0,1-3.24-8.11,30.34,30.34,0,0,1-.71-3.41,19.32,19.32,0,0,1-.23-2.72c0-2.22.2-2.8.57-2.88s.55.2,1.2,1.52a14.53,14.53,0,0,1,.95,2.71c.34,1.31.65,2.63.93,3.95.57,2.65,1.11,5.32,1.88,7.91a43.68,43.68,0,0,0,4.69,10.63A67.42,67.42,0,0,1,405.71,408.75Z" style="fill:#fff"></path><path d="M427.68,407.54a16.54,16.54,0,0,1-3.09,6.43c-2.8,3.87-6.38,7.08-9.44,10.74-.45.54-.9,1.1-1.33,1.67-.05.06-.4.87-.39.8s.05-.32.15-.84h0c.5-2.56,2.1-10.29,4.11-14.25a34.16,34.16,0,0,1,4.47-7c.86-1,2.9-3.1,4.43-2.64S427.92,406.31,427.68,407.54Z" style="fill:#455a64"></path><path d="M425.19,406c-1.64-1-5.86,6.52-6.43,7.5A47.56,47.56,0,0,0,414,425c-.14.45-.25.9-.37,1.36l-.16.84s.36-.73.4-.8l.22-.3,1.11-1.37c1.83-2.74,3.72-5.46,5.5-8.25a44.68,44.68,0,0,0,3.41-6.27C424.27,409.7,425.91,406.42,425.19,406Zm-.47,2.12c-2.33,6.56-7.08,11.73-10.71,17.56l-.18.28.15-.51a54.79,54.79,0,0,1,3.85-9.58,53.57,53.57,0,0,1,3.24-5.4,26.65,26.65,0,0,1,2-2.81c.34-.37,1.3-1.35,1.63-1.19S424.87,407.67,424.72,408.1Z" style="fill:#fff"></path><path d="M444.13,353.39c-4.87,11.18-17.64,16.39-23.18,27.17,0,0,0,0,0,.05-.17.33-.33.66-.49,1a.22.22,0,0,1-.37.06.16.16,0,0,1,0-.18l.12-.25c.86-6.72,3.62-13.64,6.83-19.57,2.8-5.16,6.63-10,11.93-12.69,1.31-.67,3.86-2.09,5.32-1S444.73,352,444.13,353.39Z" style="fill:#455a64"></path><path d="M439.75,353.87c-.62-.46-1.56.09-2.09.37a18.66,18.66,0,0,0-3.69,2.52,30.7,30.7,0,0,0-5.89,7,63.33,63.33,0,0,0-6.95,14.07c-.37,1.12-.69,2.25-1,3.41,0,.14-.06.28-.1.42a.23.23,0,0,0,.37-.05c.15-.34.31-.65.46-1l.05-.09a37.15,37.15,0,0,1,3.47-6.37,87,87,0,0,1,7.29-8.64C432.7,364.44,441.89,355.43,439.75,353.87Zm-.78,2.58c-1.48,2.63-3.77,4.78-5.78,7s-4.06,4.49-6,6.77a42.19,42.19,0,0,0-4.26,5.82,32.86,32.86,0,0,0-2.67,5.38,46,46,0,0,1,1.91-5.59s0,0,0-.07a83.37,83.37,0,0,1,4.72-9.4.67.67,0,0,0,.06-.12,38.73,38.73,0,0,1,5.39-7.51,21.67,21.67,0,0,1,3.83-3.26c1.6-1,3-1.71,3.4-1.2S439.41,355.68,439,356.45Z" style="fill:#fff"></path><path d="M427.13,366.49c-1.46,3.16-2.86,6.35-4.24,9.56-.66,1.5-1.3,3-1.94,4.5l-.05.09-.69,1.63c-2.11,4.91-4.43,9.93-5.72,15.13a45,45,0,0,0-1.16,8.4c0,.29,0,.58-.05.88h0c0,.16,0,.32,0,.48a2.44,2.44,0,0,0,0,.27c-.09,2.45-.05,4.91,0,7.3.07,3.34.35,6.65.67,10a1.5,1.5,0,0,0,0,.29c0,.15,0,.3,0,.45l0,.23,0,.42c.11,1.07.21,2.13.29,3.2h-1a64.55,64.55,0,0,1-1.23-9.84,1.55,1.55,0,0,1,0-.21q0-.48-.06-1c0-.4,0-.79,0-1.19,0-1-.06-1.9-.08-2.84a70.08,70.08,0,0,1,1.17-16.49c0-.15.07-.29.11-.44a.65.65,0,0,1,0-.19c0-.1,0-.21.07-.32l.13-.5c.08-.3.17-.6.26-.9l.08-.26a107.47,107.47,0,0,1,5.62-13.58c.37-.8.75-1.6,1.13-2.4l.63-1.32,1-2s0,0,0-.07c1.56-3.14,3.18-6.25,4.72-9.4C427,366.23,427.2,366.34,427.13,366.49Z" style="fill:#455a64"></path></g><g id="freepik--Table--inject-146"><polygon points="459.39 429.28 407.05 429.52 354.7 429.61 250 429.78 145.3 429.61 92.95 429.53 40.6 429.28 92.95 429.04 145.3 428.95 250 428.78 354.7 428.95 407.05 429.04 459.39 429.28" style="fill:#263238"></polygon></g><g id="freepik--Character--inject-146"><path d="M210,251.72c10.83,29.52,38.87,86.77,59.69,95.46,17.67,7.37,59.84,8.27,72.43,7.72,6.66-.29-5-56.93-12.12-56.81-7.31.12-40.67-.86-45.9-1.86s-33.88-36.27-51.73-55C209.84,217.71,201.1,227.54,210,251.72Z" style="fill:#d3766a"></path><path d="M333.63,354.45c6.72.74,38.23,1.62,46.93-.13s33.37-8.62,32.7-15.42-8.05-5.36-8.05-5.36,10-4.55,8.66-11.33-12.7-4.18-12.7-4.18,9.88-5.42,8.11-12.09-12.82-2.13-12.82-2.13,9.27-4.53,5.5-9.42c-4.54-5.87-20.69,4.41-30.44,5.63-2.22.28-45.28,2.4-45.28,2.4Z" style="fill:#d3766a"></path><path d="M397.42,303.44c-11.89,7.53-18.4,8.77-32.26,8.79-.27,0-.33.4-.05.43,13.58,1.21,22,.84,32.7-8.67C398.34,303.53,398,303.08,397.42,303.44Z" style="fill:#263238"></path><path d="M402.1,317.41c-13,6.75-20.08,8.15-34.59,9.25-.21,0-.2.36,0,.36,14.33.12,22.69-.45,34.83-8.9C402.89,317.74,402.7,317.1,402.1,317.41Z" style="fill:#263238"></path><path d="M404.47,333.57c-13.09,5.62-20.75,7.49-35,6.74a.26.26,0,0,0-.05.52c14.43,2.18,24-.09,35.16-6.85C405.36,333.52,405.29,333.21,404.47,333.57Z" style="fill:#263238"></path><path d="M317.39,302.27s12.9-12,19.73-16.06,37.83-9.71,39.44-3.08c2.07,8.55-15.18,15.35-24.06,17.57,0,0,4.81,19.79-6.52,27.35S317.39,302.27,317.39,302.27Z" style="fill:#d3766a"></path><path d="M376.36,285.67c-3.74,9.16-15.59,11.33-24.05,14.13a.82.82,0,0,0-.44,1.27c1.47,8.42,1.08,20.74-5.34,27.09a.2.2,0,0,0,.26.31c7.81-5.87,9.18-17.94,7-27.07,8.72-2.74,20.5-5.43,22.67-15.7C376.46,285.64,376.38,285.61,376.36,285.67Z" style="fill:#263238"></path><path d="M228,302.72l57.53-12s-40.5-44.51-60.72-59.87c-21.07-16-30.37-12.62-18.24,20.26C218.79,284.2,228,302.72,228,302.72Z" style="fill:#92E3A9"></path><path d="M234.54,283.83a3,3,0,0,1-1.29-.45,2.42,2.42,0,0,1-1.12-2.13,3.32,3.32,0,0,0-2.09-3,3.39,3.39,0,0,0-1.74-.1,15.33,15.33,0,0,0-1.61.33c.55.12,1.06.19,1.61.29a3.42,3.42,0,0,1,1.32.41,2.48,2.48,0,0,1,1.18,2.07,3.25,3.25,0,0,0,2,3,3,3,0,0,0,1.74.19c.55-.13,1.06-.19,1.58-.32A11.63,11.63,0,0,0,234.54,283.83ZM203.5,234a2.77,2.77,0,0,1-1.33-.45,2.55,2.55,0,0,1-.66-.65c.07.51.15,1.05.26,1.61a3.25,3.25,0,0,0,1.73.14,12.54,12.54,0,0,0,1.57-.33A14.57,14.57,0,0,0,203.5,234Zm50.9,24a3,3,0,0,1-.39,1.17,2.41,2.41,0,0,1-2.06,1.2,3.19,3.19,0,0,0-3,2,2.55,2.55,0,0,0-.16,1.73c.09.54.16,1.06.28,1.57a13.23,13.23,0,0,0,.33-1.57,3,3,0,0,1,.45-1.29A2.39,2.39,0,0,1,252,261.7a3.26,3.26,0,0,0,3-2.09,2.69,2.69,0,0,0,.16-.89ZM230,244.12a2.88,2.88,0,0,1-1.23.6,2.37,2.37,0,0,1-2.28-.7,3.28,3.28,0,0,0-3.57-.61,3.07,3.07,0,0,0-1.32,1.16c-.3.45-.64.87-.9,1.35.48-.29.9-.61,1.35-.9a2.59,2.59,0,0,1,1.22-.64,2.42,2.42,0,0,1,2.32.57,3.17,3.17,0,0,0,3.5.74,3.22,3.22,0,0,0,1.39-1.12c.29-.45.61-.87.87-1.36C230.83,243.51,230.41,243.83,230,244.12Zm43.85,36.78a2.76,2.76,0,0,1-1.22.61,2.37,2.37,0,0,1-2.28-.7,3.29,3.29,0,0,0-3.57-.61,3.07,3.07,0,0,0-1.32,1.16c-.3.45-.64.87-.91,1.35.49-.29.91-.61,1.36-.9a2.54,2.54,0,0,1,1.22-.64,2.43,2.43,0,0,1,2.32.57,3.17,3.17,0,0,0,3.5.74,3.22,3.22,0,0,0,1.39-1.12c.29-.46.61-.88.87-1.36C274.69,280.3,274.27,280.62,273.81,280.9Z" style="fill:#fff"></path><path d="M229.84,292c1.34-.45,2.74-.7,4.11-1l4.22-1c2.85-.67,5.71-1.29,8.57-1.9,5.72-1.21,11.44-2.44,17.18-3.56,1.58-.3,3.16-.6,4.74-.87s3.36-.44,5-.72c.11,0,.12.14,0,.16-1.4.34-2.79.8-4.19,1.15s-2.89.7-4.35,1q-4.28.95-8.58,1.83c-5.64,1.15-11.28,2.32-16.95,3.35l-4.74.85c-1.66.3-3.33.7-5,.85C229.8,292.17,229.75,292,229.84,292Z" style="fill:#263238"></path><path d="M255.93,296.91,228,302.72s-9.23-18.52-21.44-51.6c-5.14-14-6.43-22.59-4.59-26.69Z" style="opacity:0.1"></path><path d="M248,429.28H159.13c-.73-2.86-1.44-5.68-2.15-8.45-.81-3.18-1.61-6.29-2.37-9.32-.17-.67-.35-1.35-.52-2l-1.72-6.78c-.34-1.34-.68-2.65-1-4s-.67-2.63-1-3.9c-.09-.34-.17-.68-.26-1l-.27-1.09c-.11-.45-.22-.88-.33-1.31v0c-.13-.46-.24-.91-.35-1.36-.23-.85-.44-1.7-.64-2.52-.32-1.22-.62-2.41-.92-3.57-.12-.5-.26-1-.38-1.51-.21-.81-.42-1.59-.61-2.37l-.38-1.52c-.53-2-1-3.95-1.46-5.74-.13-.47-.24-.94-.36-1.39-.19-.77-.39-1.52-.57-2.24-.12-.45-.23-.88-.33-1.31-.4-1.53-.76-2.93-1.06-4.16-.09-.32-.17-.64-.25-.94-.2-.81-.39-1.53-.55-2.17-.07-.26-.12-.51-.19-.74s-.13-.49-.18-.7-.08-.32-.12-.45-.11-.43-.15-.61-.05-.19-.07-.27c-.14-.53-.2-.8-.2-.8h86.46s2.84,9.81,7.4,25.64c.92,3.22,1.93,6.7,3,10.39C240.61,403.64,244.15,416,248,429.28Z" style="fill:#37474f"></path><path d="M173.67,429.28h-2.21q-4.94-20.41-9.56-40.9-1.11-5-2.21-10c-.06-.31-.13-.62-.2-.93a.13.13,0,0,1,.26-.07l.09.3q1.5,5.35,3,10.73Q168.45,408.79,173.67,429.28Z" style="fill:#263238"></path><path d="M224.38,357.06l-3.81,19.1-3.13,15.67-5.33,26.7-.55,2.73-.91,4.56-.69,3.46H159.12c-.72-2.87-1.44-5.69-2.14-8.45-.81-3.18-1.61-6.29-2.37-9.32-.17-.67-.35-1.35-.52-2l-1.72-6.78c-.34-1.34-.68-2.65-1-4s-.67-2.63-1-3.9c-.09-.34-.17-.68-.26-1l-.27-1.09c-.11-.45-.22-.88-.33-1.31v0c-.13-.46-.24-.91-.35-1.36-.23-.85-.44-1.7-.64-2.52-.32-1.22-.62-2.41-.92-3.57-.13-.52-.26-1-.38-1.51-.21-.81-.42-1.59-.61-2.37l-.38-1.52c-.53-2-1-3.95-1.46-5.74-.13-.47-.24-.94-.36-1.39-.19-.77-.39-1.52-.57-2.24-.12-.45-.23-.88-.33-1.31-.4-1.53-.76-2.93-1.06-4.16-.09-.32-.17-.64-.25-.94-.2-.81-.39-1.53-.55-2.17-.07-.26-.12-.51-.19-.74s-.13-.49-.18-.7-.08-.32-.12-.45-.11-.43-.15-.61-.05-.19-.07-.27c-.14-.53-.2-.8-.2-.8Z" style="fill:#263238"></path><path d="M224.39,357v0c0,.47-.36,5.63-1.19,13.49-.24,2.3-.52,4.82-.84,7.52-.51,4.27-1.14,9-1.92,13.95-1.33,8.68-3.06,18.14-5.31,27.4-.8,3.33-1.68,6.63-2.61,9.86l-111.61,0c1.32-17,2.53-32.39,3.48-44.52,1.34-17.06,2.2-27.74,2.2-27.74l101.23,0Z" style="fill:#37474f"></path><path d="M224.16,367.28c-.13,4-.3,8-.55,12-.27,4.31-.67,8.61-1.23,12.91,0,.16,0,.32-.06.48-.53,4-1.12,8-1.81,12.05-.64,3.74-1.11,7.77-2.77,11.22a11,11,0,0,1-2.61,3.53,7.69,7.69,0,0,1-3.57,1.84,4.8,4.8,0,0,1-.66.12h-.19a.25.25,0,0,1,.12.23c-.05,1.34,0,2.7-.16,4,0,.06,0,.11,0,.17-.14,1.16-.35,2.31-.56,3.46h-1.92s0,0,0-.07c.33-1.26.62-2.53.93-3.81s.77-2.56,1.07-3.88a.27.27,0,0,1,.09-.12,5.94,5.94,0,0,1-5.76-3.62,10.33,10.33,0,0,1-.09-5.24c.35-2.29.68-4.57,1-6.86.65-4.19,1.5-8.35,2.24-12.52.11-.63.23-1.28.34-1.91,1.5-8.49,3.06-17,4.94-25.41.07-.35.15-.7.23-1s.42-.17.4.06c-.05.56-.11,1.13-.18,1.7-.33,3.23-.71,6.45-1.16,9.65-.54,3.78-.91,7.57-1.44,11.34-.18,1.28-.36,2.57-.55,3.85-.87,6.2-1.77,12.4-2.83,18.58-.49,2.87-2.28,8,1.85,8.91a4.27,4.27,0,0,0,2.8-.35,8.77,8.77,0,0,0,3.84-4.85c1.17-3.29,1.59-6.92,2.2-10.34q1-5.67,1.8-11.35v0q1-7.1,2.11-14.19l1.14-7.23.54-3.34C223.79,367,224.16,367,224.16,367.28Z" style="fill:#263238"></path><path d="M125.4,397a56.58,56.58,0,0,0,13.76-1.85c2.08-.54,4.13-1.2,6.16-1.87a16,16,0,0,0,5.56-2.79c3.13-2.7,4.59-6.95,5.94-10.72a101.25,101.25,0,0,0,3.61-13c0-.22.37-.15.38.06a50.62,50.62,0,0,1-1.88,14.78c-1.12,4.08-2.63,8.64-5.93,11.5-3.47,3-8.18,4.06-12.62,4.61a57.94,57.94,0,0,1-15-.21A.25.25,0,0,1,125.4,397Z" style="fill:#263238"></path><path d="M117.66,366.83q-.36,9.38-.78,18.75-1,21.85-2.11,43.7h-2.09q1.42-21.9,3-43.77.7-9.35,1.42-18.69A.27.27,0,0,1,117.66,366.83Z" style="fill:#263238"></path><path d="M243.61,403.25,92.2,391.77s30.46-120.72,90.61-165.1c15.37-11.34,32.2-4.06,39.78,4.41C241.83,252.61,244.06,402.77,243.61,403.25Z" style="fill:#92E3A9"></path><path d="M175.59,280.86a2.88,2.88,0,0,1-1.29-.45,2.38,2.38,0,0,1-1.12-2.13,3.12,3.12,0,0,0-3.84-3,15.09,15.09,0,0,0-1.6.32c.54.13,1.06.19,1.6.3a3.26,3.26,0,0,1,1.33.41,2.48,2.48,0,0,1,1.18,2.06,3.26,3.26,0,0,0,2,3,3.11,3.11,0,0,0,1.74.19c.55-.13,1.06-.19,1.57-.33A12.83,12.83,0,0,0,175.59,280.86Zm58.95,3a3,3,0,0,1-1.29-.45,2.42,2.42,0,0,1-1.12-2.13,3.32,3.32,0,0,0-2.09-3,3.39,3.39,0,0,0-1.74-.1,15.33,15.33,0,0,0-1.61.33c.55.12,1.06.19,1.61.29a3.42,3.42,0,0,1,1.32.41,2.48,2.48,0,0,1,1.18,2.07,3.25,3.25,0,0,0,2,3,3,3,0,0,0,1.74.19c.55-.13,1.06-.19,1.58-.32A11.63,11.63,0,0,0,234.54,283.83ZM206.2,383.77a2.87,2.87,0,0,1-1.31-.45,2.46,2.46,0,0,1-1.14-2.13,3.21,3.21,0,0,0-2.09-3,3.32,3.32,0,0,0-1.73-.1c-.51.1-1.06.17-1.57.3a12.44,12.44,0,0,0,1.57.31,3.43,3.43,0,0,1,1.31.42,2.44,2.44,0,0,1,1.23,2.06,3.17,3.17,0,0,0,2,3,3,3,0,0,0,1.77.2c.51-.12,1-.2,1.58-.32C207.23,383.93,206.71,383.87,206.2,383.77ZM203.5,234a2.77,2.77,0,0,1-1.33-.45,2.56,2.56,0,0,1-1.12-2.12,3.14,3.14,0,0,0-2.06-2.93,3,3,0,0,0-1.77-.13c-.52.1-1.06.17-1.58.32.52.13,1.06.19,1.58.33a3.1,3.1,0,0,1,1.32.39,2.47,2.47,0,0,1,1.22,2.05,3.31,3.31,0,0,0,2,3,3.25,3.25,0,0,0,1.78.16,12.54,12.54,0,0,0,1.57-.33A14.57,14.57,0,0,0,203.5,234ZM164,370.52a3.27,3.27,0,0,1-1.32-.44,2.46,2.46,0,0,1-1.12-2.13,3.24,3.24,0,0,0-2.09-3,3.42,3.42,0,0,0-1.75-.13c-.54.13-1.06.19-1.57.33a13.21,13.21,0,0,0,1.57.31,2.83,2.83,0,0,1,1.33.42,2.46,2.46,0,0,1,1.22,2.06,3.18,3.18,0,0,0,2,3,3.08,3.08,0,0,0,1.76.17c.52-.1,1-.17,1.58-.33C165,370.69,164.5,370.62,164,370.52Zm-53.21,14.09a3.27,3.27,0,0,1-1.32-.44,2.49,2.49,0,0,1-1.12-2.13,3.22,3.22,0,0,0-2.09-3,3.39,3.39,0,0,0-1.74-.13c-.55.13-1.06.19-1.58.33a11.62,11.62,0,0,0,1.58.31,2.94,2.94,0,0,1,1.32.42,2.47,2.47,0,0,1,1.23,2.06,3.17,3.17,0,0,0,2,3,3.09,3.09,0,0,0,1.76.17,13.93,13.93,0,0,0,1.58-.33C111.8,384.78,111.29,384.72,110.77,384.61Zm79.38-61.24a3.12,3.12,0,0,1-1.29-.42,2.44,2.44,0,0,1-1.12-2.12,3.26,3.26,0,0,0-2.09-3,2.93,2.93,0,0,0-1.74-.13c-.55.13-1.06.19-1.61.32a11.46,11.46,0,0,0,1.61.32,3.25,3.25,0,0,1,1.32.39,2.47,2.47,0,0,1,1.19,2.06,3.28,3.28,0,0,0,2,3,2.93,2.93,0,0,0,1.74.16,15.22,15.22,0,0,0,1.61-.31C191.21,323.56,190.7,323.5,190.15,323.37Zm40.13,29.69a2.68,2.68,0,0,1-1.29-.45,2.4,2.4,0,0,1-1.13-2.12,3.26,3.26,0,0,0-2.09-3,3.47,3.47,0,0,0-1.77-.09c-.51.09-1,.16-1.57.28A13.77,13.77,0,0,0,224,348a3,3,0,0,1,1.35.42,2.41,2.41,0,0,1,1.19,2.06,3.25,3.25,0,0,0,2,3,3.1,3.1,0,0,0,1.78.19c.54-.13,1.06-.19,1.57-.32A10.16,10.16,0,0,0,230.28,353.06Zm-97.4-25.52a2.65,2.65,0,0,1-1.3-.45,2.41,2.41,0,0,1-1.12-2.12,3.25,3.25,0,0,0-2.09-3,3.49,3.49,0,0,0-1.77-.1c-.52.1-1,.16-1.58.29a13.83,13.83,0,0,0,1.58.32,3.07,3.07,0,0,1,1.35.42,2.41,2.41,0,0,1,1.19,2.06,3.25,3.25,0,0,0,2,3,3.1,3.1,0,0,0,1.78.19c.54-.13,1.06-.19,1.57-.32A11.49,11.49,0,0,0,132.88,327.54Zm94.46-5.76a3.9,3.9,0,0,1-1.23.68,2.5,2.5,0,0,1-2.32-.62,3.25,3.25,0,0,0-3.51-.73,3,3,0,0,0-1.37,1.12c-.3.45-.62.87-.91,1.35.49-.29.91-.61,1.36-.9a3.25,3.25,0,0,1,1.22-.61,2.6,2.6,0,0,1,2.32.7,3.24,3.24,0,0,0,3.57.62,3.4,3.4,0,0,0,1.32-1.16c.28-.45.61-.86.86-1.35C228.2,321.17,227.79,321.49,227.34,321.78ZM173.7,241.41c-.1-.55-.17-1.07-.29-1.58a15.21,15.21,0,0,0-.33,1.58,3.21,3.21,0,0,1-.41,1.32,2.4,2.4,0,0,1-2.06,1.19,3.29,3.29,0,0,0-3,2,3.18,3.18,0,0,0-.19,1.76c.13.52.19,1,.33,1.58.16-.55.22-1.06.32-1.58a2.69,2.69,0,0,1,.45-1.31,2.45,2.45,0,0,1,2.13-1.13,3.22,3.22,0,0,0,2.95-2.09A3.16,3.16,0,0,0,173.7,241.41ZM161.15,334.1a13.22,13.22,0,0,0-.32-1.57c-.12.51-.2,1-.32,1.57a3.16,3.16,0,0,1-.39,1.32,2.39,2.39,0,0,1-2.06,1.19,3.32,3.32,0,0,0-3,2,3.37,3.37,0,0,0-.16,1.74,15,15,0,0,0,.31,1.6,11.37,11.37,0,0,0,.33-1.6,2.73,2.73,0,0,1,.45-1.29,2.39,2.39,0,0,1,2.12-1.13,3.29,3.29,0,0,0,3-2.09A3.16,3.16,0,0,0,161.15,334.1ZM143.8,281a12.83,12.83,0,0,0-.31-1.57c-.13.51-.2,1-.33,1.57a3.06,3.06,0,0,1-.39,1.32,2.38,2.38,0,0,1-2.05,1.19,3.34,3.34,0,0,0-3,2,3.42,3.42,0,0,0-.16,1.75,15.09,15.09,0,0,0,.32,1.6,13,13,0,0,0,.33-1.6,2.59,2.59,0,0,1,.45-1.29,2.39,2.39,0,0,1,2.12-1.13,3.29,3.29,0,0,0,3-2.09A3.07,3.07,0,0,0,143.8,281Zm86.46,114.13a13.39,13.39,0,0,0-.32-1.58c-.12.52-.2,1-.32,1.58a3.25,3.25,0,0,1-.39,1.32,2.41,2.41,0,0,1-2.06,1.19,3.31,3.31,0,0,0-3,2,3.39,3.39,0,0,0-.16,1.74c0,.13,0,.27.07.4l.5,0c0-.15.05-.29.07-.44a2.77,2.77,0,0,1,.45-1.29A2.41,2.41,0,0,1,227.2,399a3.29,3.29,0,0,0,3-2.09A3.17,3.17,0,0,0,230.26,395.13ZM208.22,295c-.13-.52-.19-1-.32-1.58a13.83,13.83,0,0,0-.32,1.58,3.21,3.21,0,0,1-.42,1.35,2.4,2.4,0,0,1-2.06,1.2,3.17,3.17,0,0,0-3,2,2.69,2.69,0,0,0-.16,1.73c.1.55.16,1.06.29,1.58a13.39,13.39,0,0,0,.32-1.58A3.3,3.3,0,0,1,203,300a2.41,2.41,0,0,1,2.12-1.12,3.25,3.25,0,0,0,3-2.09A3.74,3.74,0,0,0,208.22,295Zm-67.6,93.88c-.12-.55-.19-1.06-.32-1.57a12.83,12.83,0,0,0-.32,1.57,2.71,2.71,0,0,1-.42,1.32,2.34,2.34,0,0,1-2.05,1.19,3.29,3.29,0,0,0-3,2,3,3,0,0,0-.19,1.6l0,.18c0,.08,0,.18.05.26l.53,0c0-.08,0-.16.07-.24a.5.5,0,0,1,0-.12,2.52,2.52,0,0,1,.4-1.2,2.39,2.39,0,0,1,2.12-1.13,3.21,3.21,0,0,0,3-2.09A3.27,3.27,0,0,0,140.62,388.86ZM110.77,342.5c-.12-.55-.19-1.06-.32-1.58a13.39,13.39,0,0,0-.32,1.58,2.75,2.75,0,0,1-.42,1.32,2.34,2.34,0,0,1-2,1.19,2.31,2.31,0,0,0-.37,0l-.54,1.45a2.27,2.27,0,0,1,.94-.16,3.21,3.21,0,0,0,3-2.09A3.27,3.27,0,0,0,110.77,342.5Zm93.88-77.41a3,3,0,0,1-1.23.61,2.4,2.4,0,0,1-2.28-.71,3.27,3.27,0,0,0-3.56-.61,3.16,3.16,0,0,0-1.33,1.16c-.29.45-.64.87-.9,1.35.48-.29.9-.61,1.35-.9a2.59,2.59,0,0,1,1.22-.64,2.4,2.4,0,0,1,2.32.58,3.17,3.17,0,0,0,3.51.73,3.14,3.14,0,0,0,1.38-1.12c.3-.45.61-.87.88-1.36C205.52,264.48,205.1,264.8,204.65,265.09ZM229,244.64l-.3.08a2.37,2.37,0,0,1-2.28-.7,3.28,3.28,0,0,0-3.57-.61,3.07,3.07,0,0,0-1.32,1.16c-.3.45-.64.87-.9,1.35.48-.29.9-.61,1.35-.9a2.59,2.59,0,0,1,1.22-.64,2.42,2.42,0,0,1,2.32.57,3.17,3.17,0,0,0,3.5.74,1.23,1.23,0,0,0,.26-.12C229.22,245.26,229.13,245,229,244.64Zm-67,59.09a2.47,2.47,0,0,1-1.22.61,2.38,2.38,0,0,1-2.29-.7,3.25,3.25,0,0,0-3.57-.61,3.05,3.05,0,0,0-1.32,1.15c-.28.45-.64.87-.9,1.36.48-.3.9-.62,1.35-.91a2.76,2.76,0,0,1,1.23-.64,2.39,2.39,0,0,1,2.31.58,3.17,3.17,0,0,0,3.5.74,3.24,3.24,0,0,0,1.39-1.13c.29-.45.61-.87.87-1.35C162.86,303.12,162.44,303.44,162,303.73ZM133.1,360.65a2.61,2.61,0,0,1-3.54-.07,3.18,3.18,0,0,0-3.54-.64,3.44,3.44,0,0,0-1.32,1.15,12.39,12.39,0,0,0-.91,1.36,11.11,11.11,0,0,0,1.36-.91,2.89,2.89,0,0,1,1.22-.64,2.46,2.46,0,0,1,2.29.61,3.27,3.27,0,0,0,3.53.75,3.34,3.34,0,0,0,1.36-1.13c.28-.45.64-.87.9-1.35C134,360,133.55,360.36,133.1,360.65Zm46.65,33.77a2.61,2.61,0,0,1-3.54-.07,3.19,3.19,0,0,0-3.54-.64,3.52,3.52,0,0,0-1.32,1.15,12.78,12.78,0,0,0-.9,1.36,11.73,11.73,0,0,0,1.35-.9,2.68,2.68,0,0,1,1.22-.64,2.46,2.46,0,0,1,2.29.6,3.27,3.27,0,0,0,3.53.75,3.32,3.32,0,0,0,1.36-1.12c.28-.45.64-.87.9-1.36C180.62,393.8,180.2,394.13,179.75,394.42ZM198,354.77a2.89,2.89,0,0,1-1.26.61,2.49,2.49,0,0,1-2.28-.7,3.16,3.16,0,0,0-3.58-.62,3.23,3.23,0,0,0-1.31,1.16c-.3.42-.61.83-.91,1.32a12.31,12.31,0,0,0,1.36-.9,4.41,4.41,0,0,1,1.22-.65,2.5,2.5,0,0,1,2.32.62,3.15,3.15,0,0,0,4.89-.39c.28-.45.61-.87.86-1.35C198.9,354.13,198.49,354.45,198,354.77Zm45,18.3a2.56,2.56,0,0,1-1.22-.68,3.2,3.2,0,0,0-3.54-.61,2.89,2.89,0,0,0-1.32,1.15,12.31,12.31,0,0,0-.9,1.36c.48-.3.9-.61,1.35-.91a3.18,3.18,0,0,1,1.23-.67,2.4,2.4,0,0,1,2.28.61,3.39,3.39,0,0,0,2.16,1C243.05,373.88,243,373.48,243,373.07Z" style="fill:#fff"></path><path d="M218.5,252.44c-8.83.13-20.41-15.85-23.82-27.48-.22-.8,9-28.6,10.26-34.3.26-1.18,33.89,16.57,33.89,16.57s-6.15,11.17-8.28,21.12C230.38,229.19,227,252.31,218.5,252.44Z" style="fill:#d3766a"></path><path d="M238.83,207.22s-6.15,11.18-8.29,21.13c0,.2-.25,1.64-.67,3.74-16.66-5.32-25.19-18.14-29.22-26.9,2-6.3,3.79-12.22,4.29-14.53C205.2,189.49,238.83,207.22,238.83,207.22Z" style="fill:#263238"></path><path d="M197.67,152.64c-5,12.64-1,50.56,7.52,59.61,12.41,13.13,34.2,16,45.74.75,11.18-14.77,5.2-64.1-4.51-72.48C232.13,128.18,205,134,197.67,152.64Z" style="fill:#d3766a"></path><path d="M230,173.18c-1.06.47-2.12.74-3.21,1.11-1.24.41-2.18.86-3.49.5a1.74,1.74,0,0,1-1.09-1.83c.29-1.63,1.68-2.51,3.14-3.06a6.33,6.33,0,0,1,4.59-.13A1.87,1.87,0,0,1,230,173.18Z" style="fill:#263238"></path><path d="M230.91,178.64c0-.09-.18.15-.17.25.45,2.54.53,5.51-1.65,6.69-.07,0,0,.16,0,.14C231.88,184.92,231.74,181,230.91,178.64Z" style="fill:#263238"></path><path d="M228.25,176.31c-4.13.27-3.28,8.53.55,8.27S231.72,176.08,228.25,176.31Z" style="fill:#263238"></path><path d="M245.65,176.76c0-.1.21.1.22.21.18,2.57.83,5.47,3.23,6.08.07,0,.08.15,0,.15C246.23,183.09,245.41,179.22,245.65,176.76Z" style="fill:#263238"></path><path d="M247.66,173.86c4.08-.74,5.25,7.48,1.47,8.16S244.24,174.48,247.66,173.86Z" style="fill:#263238"></path><path d="M250.24,168.7c-1.16-.07-2.23-.33-3.37-.51-1.29-.21-2.34-.25-3.34-1.18a1.77,1.77,0,0,1-.12-2.14c1-1.32,2.67-1.45,4.23-1.26a6.43,6.43,0,0,1,4.14,2A1.88,1.88,0,0,1,250.24,168.7Z" style="fill:#263238"></path><path d="M230.19,201.86c.68.53,1.37,1.29,2.31,1.27a6.64,6.64,0,0,0,2.68-.92.09.09,0,0,1,.13.12,3.47,3.47,0,0,1-3.11,1.72A2.72,2.72,0,0,1,230,202C229.9,201.85,230.09,201.78,230.19,201.86Z" style="fill:#263238"></path><path d="M232.09,193.92a8.73,8.73,0,0,0,6.21,3.27,10.78,10.78,0,0,0,3.15-.18,2.68,2.68,0,0,0,.59-.13l.55-.14a.65.65,0,0,0,.46-.63v0a1.11,1.11,0,0,0,0-.25v0l0-.23c-.15-2-.65-5-.65-5,.76.29,4.6,1.56,4.43.54-1.38-8.47-2.93-17.88-6.1-26a.24.24,0,0,0-.46.11c1,8.19,3.46,16.15,4.61,24.35a15.36,15.36,0,0,0-4.24-.82c-.27.11,1.07,5.73,1.07,6.63a.62.62,0,0,1,0,.09c-3.27.77-5.86,0-9.31-1.86C232.1,193.54,231.91,193.73,232.09,193.92Z" style="fill:#263238"></path><path d="M240.19,196.14a10.48,10.48,0,0,1-3.81,3.63,4.66,4.66,0,0,1-2.8.47c-2.1-.33-2.35-2.2-2.14-3.84a11.39,11.39,0,0,1,.66-2.55A13.51,13.51,0,0,0,240.19,196.14Z" style="fill:#263238"></path><path d="M236.38,199.77a4.66,4.66,0,0,1-2.8.47c-2.1-.33-2.35-2.2-2.14-3.84C233.65,196.4,236,197.66,236.38,199.77Z" style="fill:#ff97b8"></path><path d="M195.16,187c7.09-2,10.63-25.84,10.63-25.84s0,10.09,1.85,9.84,9.6-14,10.45-23.8c0,0,9,6.06,18,8.71s18.92,2,18.92.5c0-4.54-4.19-16.41-10.37-20.6-7.13-4.82-17.3-9.48-32-3.82S194.2,147,192.05,154.36,192.56,187.7,195.16,187Z" style="fill:#263238"></path><path d="M203.74,185.67s-7.66-12.67-13.36-10-.5,20.61,5.79,23.45a6.58,6.58,0,0,0,9-2.94Z" style="fill:#d3766a"></path><path d="M192,180.76c-.1,0-.13.13,0,.17,4.4,2.13,6.5,6.49,7.88,10.94-1.24-1.76-3-2.8-5.36-1.35-.12.08,0,.27.11.25a4.07,4.07,0,0,1,4.35,1.7,19.55,19.55,0,0,1,1.88,3.74c.19.41.93.25.81-.23l0-.11C202.1,190.12,198.16,181.76,192,180.76Z" style="fill:#263238"></path><path d="M236.83,132.61a54.82,54.82,0,0,0-14.76-6.17c-5.83-1.37-24.6-1.91-29.47,1.34s-7.91,20.68-8.3,23.24-.9,18.19,4.32,22.53,8.56-22,18.37-29.75S236.83,132.61,236.83,132.61Z" style="fill:#92E3A9"></path><path d="M236.84,132.62S216.79,136,207,143.8s-13.15,34.1-18.38,29.76c-2.3-1.92-3.24-4.5-3.82-8.73,2-7.57,6.39-19.19,13.69-26.79,6.84-7.11,17.61-9.93,28.81-10A62,62,0,0,1,236.84,132.62Z" style="opacity:0.1"></path><path d="M188.49,189.37c1.25-7,10.39-25,19-35s31.34-13.93,34.41-13.43c7.43,1.23,9.72,3.77,11,3.22s-5.85-7-7.82-8.46-7.31-5.06-10.57-5.33S211,130,202.81,137.73s-21.05,30.62-19.81,37c.29,1.52,2.15,2.67,2.55,4.83.53,2.82.77,6,1.39,8C187.44,189.19,188.38,190,188.49,189.37Z" style="fill:#92E3A9"></path><path d="M209.76,149.72a36.1,36.1,0,0,1-4.48-4.09,26.14,26.14,0,0,1-3.68-4.88.12.12,0,1,0-.21.1,19.33,19.33,0,0,0,3.25,5.38,16.84,16.84,0,0,0,4.92,3.83A.2.2,0,0,0,209.76,149.72Z" style="fill:#263238"></path><path d="M189.17,182.34c-.14-.52-.43-1-.62-1.52a8.77,8.77,0,0,1-.47-1.81,16.34,16.34,0,0,0-.43-3.49,13,13,0,0,0-1.4-2.52,4.68,4.68,0,0,1-1.08-3c0-.15-.22-.18-.23,0-.24,2.14,1,3.8,1.77,5.69.48,1.2.31,2.5.58,3.75a5.48,5.48,0,0,0,1.54,3.13C189,182.64,189.22,182.53,189.17,182.34Z" style="fill:#263238"></path><path d="M192.4,175a30.77,30.77,0,0,1-1.72-2.6,21.54,21.54,0,0,1-1.23-2.78c-.35-.94-.62-1.91-.95-2.85-.39-1.12-.91-2.2-1.25-3.33,0-.15-.26,0-.21.09.34,1.18.49,2.41.79,3.6a24.89,24.89,0,0,0,1,3,15,15,0,0,0,1.39,2.7,7.6,7.6,0,0,0,2.05,2.25A.06.06,0,0,0,192.4,175Z" style="fill:#263238"></path><path d="M195.68,168.41a20.37,20.37,0,0,1-3.36-4.72c-.85-1.69-1.61-3.44-2.34-5.19,0-.11-.26-.07-.22.07a24,24,0,0,0,1.85,5.59,12.69,12.69,0,0,0,1.55,2.41,13.34,13.34,0,0,0,2.35,2C195.62,168.66,195.78,168.52,195.68,168.41Z" style="fill:#263238"></path><path d="M199.17,162.14a7,7,0,0,1-1.67-2.08c-.52-.86-1-1.72-1.5-2.6s-.94-1.68-1.4-2.52a7,7,0,0,1-1-2.72.12.12,0,0,0-.23,0,7.24,7.24,0,0,0,.51,2.83,18.57,18.57,0,0,0,1.3,2.92,23.71,23.71,0,0,0,1.7,2.64,4.7,4.7,0,0,0,2.1,1.8C199.17,162.47,199.32,162.25,199.17,162.14Z" style="fill:#263238"></path><path d="M202.06,154c-.58-.71-1.16-1.42-1.69-2.17s-1-1.52-1.48-2.3-1-1.64-1.47-2.48a.11.11,0,1,0-.21.09,18.59,18.59,0,0,0,1,2.69,21.68,21.68,0,0,0,1.46,2.45,23.11,23.11,0,0,0,1.71,2.23,7.26,7.26,0,0,0,2.12,1.83.16.16,0,0,0,.21-.21A13.75,13.75,0,0,0,202.06,154Z" style="fill:#263238"></path><path d="M215.57,146.3a27.43,27.43,0,0,0-4.12-5.28,30.65,30.65,0,0,0-5.06-4.25c-.11-.07-.27.06-.17.17,3,3.19,6.18,6.27,9.17,9.5A.11.11,0,0,0,215.57,146.3Z" style="fill:#263238"></path><path d="M220.46,140.74a14.71,14.71,0,0,0-2.14-2.52,31.92,31.92,0,0,0-5.66-4c-.13-.07-.27.09-.15.19,1.7,1.4,3.41,2.78,5,4.28a27.83,27.83,0,0,1,2.29,2.32c.72.83,1.23,1.79,1.9,2.64a.09.09,0,0,0,.16-.07A8.2,8.2,0,0,0,220.46,140.74Z" style="fill:#263238"></path><path d="M226.6,138.6a15.13,15.13,0,0,0-2-2.49,17.73,17.73,0,0,0-4.81-3.56c-.12-.06-.22.13-.12.21a34.12,34.12,0,0,1,4.47,4c.69.74,1.34,1.51,2,2.27s1.18,1.68,1.91,2.37c.06.05.14,0,.12-.09A16.66,16.66,0,0,0,226.6,138.6Z" style="fill:#263238"></path><path d="M231.2,135.55c-.67-.67-1.38-1.32-2.09-2a9.28,9.28,0,0,0-2.3-1.64c-.13-.05-.2.12-.11.21,1.31,1.29,2.61,2.62,3.89,3.94a23.91,23.91,0,0,1,2.88,4.23.07.07,0,0,0,.13-.06A9,9,0,0,0,231.2,135.55Z" style="fill:#263238"></path><path d="M236.6,135a14.75,14.75,0,0,0-4.38-3.42c-.12-.06-.23.13-.12.2a17.94,17.94,0,0,1,3.92,3.66,25.17,25.17,0,0,1,2.92,4.53c0,.08.18.06.16,0A12.15,12.15,0,0,0,236.6,135Z" style="fill:#263238"></path><path d="M243.17,138.86a10.15,10.15,0,0,0-.49-1.13,12.4,12.4,0,0,0-1.36-2.08,26.28,26.28,0,0,0-3.66-3.49c-.12-.1-.26.09-.15.19a20.42,20.42,0,0,1,3.4,3.55,17.15,17.15,0,0,1,1.31,2c.19.34.35.7.51,1.06a6.25,6.25,0,0,0,.48,1,.12.12,0,0,0,.21,0A3.48,3.48,0,0,0,243.17,138.86Z" style="fill:#263238"></path><path d="M247.35,139.69a17.32,17.32,0,0,0-1.12-1.71,15,15,0,0,0-1.31-1.56c-.48-.51-1-1-1.45-1.52-.11-.12-.28,0-.16.17a12.28,12.28,0,0,1,1.33,1.63c.38.54.77,1.07,1.16,1.61l1.15,1.61a19.82,19.82,0,0,0,1.16,1.67.1.1,0,0,0,.16-.1A9,9,0,0,0,247.35,139.69Z" style="fill:#263238"></path><path d="M172.41,262.52c5.37,31,22.79,91.52,39.42,106.76,12.36,11.33,78.49,15.3,87.37,16.39,6.62.82,7.65-55,.62-56.17-7.21-1.19-57.51-8-62.49-9.91s-26.83-41.76-41-63.34C178.37,229,168,237.14,172.41,262.52Z" style="fill:#d3766a"></path><path d="M300.82,386.29c14.25,3.09,45,5,61.38,3,21.58-2.52,49.52-21.21,46.47-26.42-3.36-5.75-16-2.26-27.77.32-18.61,4.08-24.49-1.63-30.58-7.14-25-22.61-52.43-26.64-52.43-26.64S286.1,383.1,300.82,386.29Z" style="fill:#d3766a"></path><path d="M349.15,359.85c-6.29-5.7,17.87,0,24.77-6.78s-2-11-11.19-12.06c-31.73-3.77-37.56-17.13-59.45-12.84S349.15,359.85,349.15,359.85Z" style="fill:#d3766a"></path><path d="M332.85,358.18c-.13.05-.21-.17-.08-.23a30.5,30.5,0,0,1,8.9-2.3,76.31,76.31,0,0,1,9.2,0c3.14.13,6.27.32,9.41.32,1.6,0,3.18-.12,4.78-.25s3.1-.46,4.64-.48c.19,0,.2.25.07.34a12.74,12.74,0,0,1-4.29,1.49,31.48,31.48,0,0,1-4.33.46,78.26,78.26,0,0,1-9.56-.23c-3.11-.22-6.23-.43-9.35-.37" style="fill:#263238"></path><path d="M240.89,320.46l14.78,2c4.92.66,9.85,1.34,14.76,2.05l14.76,2.09,7.38,1,3.68.53,1.84.26.92.13.85.1-.4.07a30.12,30.12,0,0,1,7-1.84,36.36,36.36,0,0,1,7.15-.35,45.19,45.19,0,0,1,13.86,3.17c4.39,1.72,8.58,3.75,12.9,5.34a51,51,0,0,0,6.56,2c2.24.52,4.53.91,6.82,1.3A138.6,138.6,0,0,1,367.51,341a24.09,24.09,0,0,1,6.64,2.76,6.76,6.76,0,0,1,2.55,2.88,5.59,5.59,0,0,1,0,3.87,7.05,7.05,0,0,1-2.27,3,12.78,12.78,0,0,1-3.17,1.79,25.67,25.67,0,0,1-6.92,1.55,53.69,53.69,0,0,1-14-.7l.07-.15,2.28,2.16-2.4-2L350,356l.29,0a55.59,55.59,0,0,0,13.88.09,26.09,26.09,0,0,0,6.61-1.74c2-.87,4-2.25,4.69-4.24a4.36,4.36,0,0,0,0-3,5.48,5.48,0,0,0-2.1-2.21,22.49,22.49,0,0,0-6.29-2.41c-4.45-1.09-9.06-1.76-13.66-2.5-2.3-.37-4.61-.74-6.93-1.26a53.19,53.19,0,0,1-6.81-2c-4.44-1.59-8.67-3.6-13-5.24a42.53,42.53,0,0,0-13.24-3.15,34.26,34.26,0,0,0-6.79.27,28.09,28.09,0,0,0-6.52,1.65l-.24.09-.16,0-1-.12-.93-.13-1.85-.28-3.68-.56c-2.46-.37-4.91-.79-7.36-1.19l-14.71-2.46q-7.35-1.22-14.69-2.53C250.67,322.24,245.77,321.38,240.89,320.46Z" style="fill:#263238"></path><path d="M225.74,300.78l-43.18,39.86s-12.7-58.83-13.45-84.21c-.77-26.45,7.38-32.05,27.09-3.08C216,282.5,225.74,300.78,225.74,300.78Z" style="fill:#92E3A9"></path><path d="M204.23,265.38a3,3,0,0,1-.81.32,2.4,2.4,0,0,1-2.28-.71,3.27,3.27,0,0,0-3.56-.61,3.16,3.16,0,0,0-1.33,1.16c-.29.45-.64.87-.9,1.35.48-.29.9-.61,1.35-.9a2.59,2.59,0,0,1,1.22-.64,2.4,2.4,0,0,1,2.32.58,3.17,3.17,0,0,0,3.51.73,2.86,2.86,0,0,0,.93-.6Zm4,29.6c-.13-.52-.19-1-.32-1.58a13.83,13.83,0,0,0-.32,1.58,3.21,3.21,0,0,1-.42,1.35,2.4,2.4,0,0,1-2.06,1.2,3.17,3.17,0,0,0-3,2,2.69,2.69,0,0,0-.16,1.73c.1.55.16,1.06.29,1.58a13.39,13.39,0,0,0,.32-1.58A3.3,3.3,0,0,1,203,300a2.41,2.41,0,0,1,2.12-1.12,3.25,3.25,0,0,0,3-2.09A3.74,3.74,0,0,0,208.22,295ZM173.7,241.41c-.1-.55-.17-1.07-.29-1.58a15.21,15.21,0,0,0-.33,1.58,3.21,3.21,0,0,1-.41,1.32,2.4,2.4,0,0,1-2.06,1.19,3.26,3.26,0,0,0-1,.17c-.06.47-.12.95-.17,1.45a2.27,2.27,0,0,1,1.23-.3,3.22,3.22,0,0,0,2.95-2.09A3.16,3.16,0,0,0,173.7,241.41Zm16.45,82a3.12,3.12,0,0,1-1.29-.42,2.44,2.44,0,0,1-1.12-2.12,3.26,3.26,0,0,0-2.09-3,2.93,2.93,0,0,0-1.74-.13c-.55.13-1.06.19-1.61.32a11.46,11.46,0,0,0,1.61.32,3.25,3.25,0,0,1,1.32.39,2.47,2.47,0,0,1,1.19,2.06,3.28,3.28,0,0,0,2,3,2.93,2.93,0,0,0,1.74.16,15.22,15.22,0,0,0,1.61-.31C191.21,323.56,190.7,323.5,190.15,323.37Zm-14.56-42.51a2.88,2.88,0,0,1-1.29-.45,2.38,2.38,0,0,1-1.12-2.13,3.33,3.33,0,0,0-2.09-3l-.25-.08c0,.42.11.84.17,1.27a2.45,2.45,0,0,1,.84,1.81,3.26,3.26,0,0,0,2,3,3.11,3.11,0,0,0,1.74.19c.55-.13,1.06-.19,1.57-.33A12.83,12.83,0,0,0,175.59,280.86Z" style="fill:#fff"></path><path d="M216,296c-1.13.83-2.16,1.82-3.21,2.75l-3.26,2.86c-2.2,1.93-4.37,3.9-6.52,5.87-4.31,4-8.64,7.89-12.88,11.92-1.17,1.1-2.33,2.21-3.47,3.35s-2.31,2.48-3.5,3.67c-.08.07,0,.17.12.1,1.09-.94,2.27-1.8,3.37-2.74s2.25-1.95,3.35-2.94q3.27-2.94,6.48-5.93c4.21-3.92,8.45-7.83,12.58-11.84,1.15-1.12,2.29-2.25,3.45-3.37s2.5-2.3,3.59-3.58C216.13,296.08,216.05,296,216,296Z" style="fill:#263238"></path><path d="M211.88,273c0-.11-.23,0-.2.08a45.74,45.74,0,0,0,2.37,6.42c-.57-.88-1.12-1.77-1.69-2.64-1.86-2.82-3.76-5.61-5.61-8.44a.1.1,0,0,0-.17.1c2.89,5.14,5.56,10.41,8.61,15.47s8.59,13.67,10.32,16.42c-1.08,1.33-2.74,2.75-3.93,4.16-.11.13.11.28.23.17,1.42-1.3,3.37-2.6,4.75-4.12.17-.19-5.93-10.79-11.3-19.23C214.21,278.52,213.1,275.71,211.88,273Z" style="fill:#263238"></path><path d="M191.64,332.26c-2.81,3-5.71,6-8.63,8.87l-.79.79-.32-1.12c-1.15-4.1-2.2-8.21-3.18-12.34l-1.42-6.22L176,316c-.82-4.17-1.56-8.35-2.19-12.56s-1.13-8.44-1.37-12.69l5.44,24.86,2.7,12.42,2.62,12.45-1.11-.34C185.24,337.47,188.39,334.81,191.64,332.26Z" style="fill:#263238"></path><path d="M170.54,296c.47.89.84,1.79,1.22,2.69l1.13,2.67c.36.9.75,1.78,1.13,2.68s.78,1.77,1.12,2.71a16.09,16.09,0,0,1-3.17-5A18.4,18.4,0,0,1,170.54,296Z" style="fill:#263238"></path><path d="M231.4,238a69.42,69.42,0,0,1-1.61,7.07,35.23,35.23,0,0,1-2.17,6.16c-1.76,3.56-4.81,6.73-9.18,7.37a15.19,15.19,0,0,1-11.33-3.42c-3.36-2.63-5.86-6.18-8.13-9.61-1.4-2.12-2.72-4.3-3.93-6.53-.61-1.13-1.23-2.25-1.79-3.41s-1-2.33-1.67-3.45c-.05-.09-.24,0-.2.06,1.17,2.62,4.67,10.89,5.9,13,2.23,3.78,4.69,7.66,8.15,10.61a17,17,0,0,0,12.05,4.36,12.54,12.54,0,0,0,10.2-6.7,25.55,25.55,0,0,0,2.43-7.19c.58-2.74,1-5.51,1.34-8.28C231.47,237.94,231.41,237.94,231.4,238Z" style="fill:#263238"></path></g><g id="freepik--drop-of-water--inject-146"><path d="M406.55,255.34c0,16.8-13.21,38.33-38.34,38.33s-38.34-21.53-38.34-38.33c0-10.82,4.84-21.67,11.08-31.8.33,16.33,15.2,23.82,27.8,18.8,8.64-3.44,10.18-11,15.67-14.69s12.47-1.73,15.75,4.28h0C404,239.56,406.55,247.45,406.55,255.34Z" style="fill:#263238"></path><path d="M406.55,255.34c0,16.8-13.21,38.33-38.34,38.33s-38.34-21.53-38.34-38.33c0-30.44,38.34-61.09,38.34-75.63v.41c.2,7.54,1.3,16.4-3,28.67-1.45,5.35-2.92,11.29-3,15.34,0,4.78,2.22,6.31,2.65,8.49.86,4.41-3.23,6.65-6.18,3.85-1.37-1.29-2-4.13-1.57-8-4,13.49-2,24.92,9.45,31.06,19.13,10.27,38.23-9.24,33.59-27.56C404,239.56,406.55,247.46,406.55,255.34Z" style="fill:#455a64"></path><path d="M364.87,239a3.34,3.34,0,1,1-3.35,3.34,3.34,3.34,0,0,1,3.35-3.34" style="fill:#455a64"></path><circle cx="376.78" cy="221.93" r="1.44" style="fill:#455a64"></circle><path d="M380.56,209c4.73-.55,9.49,5.31,14.88,14.72a14,14,0,0,0-6.77-4c-3.45-.77-5.28,0-9.37-1.54A4.75,4.75,0,0,1,380.56,209Z" style="fill:#455a64"></path><path d="M402.84,271.65s-10.22,18.75-30.21,17.17c-12.42-1-17.29-7.07-19.71-12.46-2.09-4.65-7.19-3.6-7.19.62s6.07,8.8,6.07,8.8a17.57,17.57,0,0,1-11-12.77c-2-8.41-9.67-7.59-8.68-.25,1.3,9.64,12.19,22.91,35.25,22.42C393.33,294.61,402.84,271.65,402.84,271.65Z" style="fill:#37474f"></path><path d="M348.51,266.27a3.34,3.34,0,1,1-3.34-3.34A3.33,3.33,0,0,1,348.51,266.27Z" style="fill:#37474f"></path><path d="M376.48,273.24c-.48,1.29.32,1.34.37,1.88s0,1.55-1.55,3.11-4.14,1.24-4.68,1.88-1.45,3.38-2.74,4.3-1.5.37-3.33.75-3.22,2.74-3.76,3.87.11,3-1.18,3.06-1.88-2.74-3.06-4.24a10,10,0,0,1-1.93-4.62c-.38-1.78.21-5.48,0-6.93s-4.08-4-5.48-5.8-3.33-5.32-3.23-6.5a4.84,4.84,0,0,1,1.62-3c.64-.48.37-.75.48-1.18s.64-.54.75-1.07a3.26,3.26,0,0,0-.86-2.42c-.53-.27-.91.64-1.23.48s-1.29-1.29-1.67-1.39-.27.69-.8-.33-.81-3.6-1.24-4-.75.75-1.77,0-1.45-2.21-1.88-2.42-1,.05-1.46-.81.38-2.42,0-2.25-1.23,1.39-1.44.21,1.07-5.15.86-7.3a8.52,8.52,0,0,1,2-6.23s.21-1.19.43-1.94,4.83-3.76,5.37-4.62a4.22,4.22,0,0,0,.38-1.53,38.13,38.13,0,0,1,17.66-7.11c-.11.53-.21,1-.31,1.56-.61.16-1,.34-1,.53s.39.18.89.21c-.17,1-.31,2-.39,2.9-.5-.29-1.12-1-1.79-1.07s-1.43.54-1.92.61-1.08-.54-1.84-.39-.93.78-1.32,1-1.33.25-1.43.83,1.18.89,1.5,1.25-.39,1.58-.07,1.83,2.33-1.51,2.83-1.94.93-2.29,2-2.25,1.44,1.86,1.79,2a.4.4,0,0,0,.15,0,11.29,11.29,0,0,0,.68,4l-.07,0c-.51.15-1.83-1.36-2.19-.93s.36,1.8.72,2.12,1.68.5,1.79.86-.9,1.14-2.11,1.07-2.22-1-2.69-.61-.22,1.43-.54,1.79a1.26,1.26,0,0,1-.7.22,16.85,16.85,0,0,1,0-4.38q-.69,2.34-1.14,4.59a2.23,2.23,0,0,0-1.1.61c-.86.93-1.26,2.33-2.12,3.12s-1.25-.22-2.4.89-1.32,3.58-1.36,4.44,0,1.54-.28,1.43-.69-.86-.79-1.32.25-1.25.25-1.54a5.07,5.07,0,0,0-2.61-1.9c-1-.14-1.83.64-2.55,1.22s-2,.46-2.47.93-.82,4.58-.46,5.55.82,1,2,.47.5-1.47,1.18-1.26a1.61,1.61,0,0,1,1,1.51c0,.57-1.36,1.93-1.19,2.32s1.37-.07,1.94.11.86.54.68,2-.07,2.61.79,3.1,1.34-.7,1.72-.54.91,1,1.44,1,.27-.53,1.29-.86.65-.53.87-1.18a1.17,1.17,0,0,1,1.55-.86c.7.33.22.81.27,1.35s1.29.59,2.26.91,1.5,0,3.43.64,2,2.58,2.85,2.9a12,12,0,0,0,2.28.19c.66.44,1.37.87,2.11,1.27s1.41.71,2.12,1c.67,1.34.57,2.89,1.28,3.44,1,.75,4.56,1.78,6,2s1.61-.7,2.74-.43a2.4,2.4,0,0,1,2.15,2.15C381.16,269.07,377,272,376.48,273.24Z" style="fill:#92E3A9"></path><path d="M347.62,245.77c0,.3.93.43,2,1s1.47,2.4,2,2.36.4-.86.61-1.07a.7.7,0,0,0,0-1.15c-.57-.46-1.13-1.47-2.18-1.61s-1.22-.57-1.69-.54A.81.81,0,0,0,347.62,245.77Z" style="fill:#92E3A9"></path><path d="M353.53,248.78c-.16.44,0,.75,1.14,1s2.22-.29,1.86-.52-.89-.13-.68-.52.14-1-.79-.86S353.67,248.38,353.53,248.78Z" style="fill:#92E3A9"></path><path d="M357.25,250a.91.91,0,0,1-.11-.25C357.17,249.81,357.21,249.89,357.25,250Z" style="fill:#92E3A9"></path><path d="M406.55,255.13c0,.27,0,.53,0,.79s0,.45,0,.67l0,.66,0,.54a38.15,38.15,0,0,1-7,19.5l-.27.39c3.65-5.58,4.36-13,4.46-14.15s-.46-1.22.11-3.33a6.13,6.13,0,0,0-1-4.83c-.43-.47-1.36-.32-2.11.14s-.22.83-.72,1-1-.1-1.46-.07-.9,1.22-1.9,1.18-1.65-1.47-2.4-2.49a3.47,3.47,0,0,0-.25-.29,25.23,25.23,0,0,0,6.79-20l0,0a38.25,38.25,0,0,1,4.24,9.41l0,.1A38.44,38.44,0,0,1,406.55,255.13Z" style="fill:#92E3A9"></path><path d="M333.11,248.3c1.43-17.81,27-49.15,27-49.15s-14.9,21-16.58,34.81c-.86,7.17.06,12.15-1.11,17.73C341,258.51,332.18,259.83,333.11,248.3Z" style="fill:#fff;opacity:0.6000000000000001"></path><path d="M355.06,289.81a34.06,34.06,0,0,0,4.38.92c1.47.22,3,.37,4.44.45a42.69,42.69,0,0,0,8.9-.45,35.65,35.65,0,0,0,4.34-.93,32.27,32.27,0,0,0,4.18-1.45,32.76,32.76,0,0,0,7.59-4.48,37.09,37.09,0,0,0,6.19-6.27,46,46,0,0,0,4.71-7.44,49.85,49.85,0,0,0,3.28-8.21c.43-1.42.81-2.86,1.11-4.31a39,39,0,0,0,.73-4.41h.14a36.22,36.22,0,0,1-1,9,41.63,41.63,0,0,1-1.25,4.36c-.51,1.43-1.09,2.84-1.73,4.22a38.75,38.75,0,0,1-2.2,4,40.47,40.47,0,0,1-2.68,3.7c-.24.29-.5.58-.75.86l-.37.44-.39.41-.79.83-.82.79c-.53.54-1.12,1-1.69,1.53-.28.25-.59.48-.88.72s-.58.49-.9.7a33.23,33.23,0,0,1-7.93,4.44,32.45,32.45,0,0,1-4.32,1.39,35.28,35.28,0,0,1-4.45.85,43.78,43.78,0,0,1-9,.17q-2.25-.19-4.47-.6A36.1,36.1,0,0,1,355,290Z" style="fill:#fff;opacity:0.6000000000000001"></path></g><g id="freepik--Birds--inject-146"><path d="M282,92.55a23.52,23.52,0,0,1,2.92-1.25,12.59,12.59,0,0,1,3.19-.73,2.55,2.55,0,0,1,1,.11,1.19,1.19,0,0,1,.31.14l.19.14c.13.09.23.19.35.28.42.38.79.77,1.16,1.17.72.81,1.35,1.65,2,2.52l-.79-.28a23.9,23.9,0,0,1,3.26-.69,13.34,13.34,0,0,1,1.7-.12,7.09,7.09,0,0,1,.9.07,2.33,2.33,0,0,1,.49.12,3.6,3.6,0,0,1,.49.23,5.58,5.58,0,0,1,1.28,1.23c.35.44.66.9,1,1.36a20.54,20.54,0,0,1,1.52,2.9c-.7-.83-1.38-1.68-2.09-2.47-.36-.4-.72-.79-1.1-1.14a5.21,5.21,0,0,0-1.14-.89,3.1,3.1,0,0,0-1.28-.13,13.85,13.85,0,0,0-1.52.21c-1,.19-2.06.44-3.07.71l-.5.14-.29-.42c-.59-.84-1.22-1.67-1.86-2.46a13.62,13.62,0,0,0-1-1.14c-.08-.07-.17-.17-.25-.23l-.11-.1s0,0,0,0a1.53,1.53,0,0,0-.56-.11,15.17,15.17,0,0,0-3,.29C284.06,92.15,283,92.36,282,92.55Z" style="fill:#263238"></path><path d="M293.49,123.63a35,35,0,0,1,3.93-2.69,18.35,18.35,0,0,1,4.47-2,4.08,4.08,0,0,1,1.49-.13,2,2,0,0,1,.49.12l.33.15c.22.1.39.21.58.31a24.47,24.47,0,0,1,2.05,1.39c1.29,1,2.48,2,3.67,3.11l-1.25-.18a36.39,36.39,0,0,1,4.59-2,20.61,20.61,0,0,1,2.46-.67,9.39,9.39,0,0,1,1.35-.17,6.53,6.53,0,0,1,.75,0,5.58,5.58,0,0,1,.78.2,8.53,8.53,0,0,1,2.25,1.44,22.66,22.66,0,0,1,1.81,1.71,31.22,31.22,0,0,1,3.07,3.83c-1.27-1-2.5-2.07-3.79-3-.64-.48-1.28-1-1.94-1.36a7.69,7.69,0,0,0-1.95-1,4.45,4.45,0,0,0-1.91.18,18.61,18.61,0,0,0-2.17.75c-1.45.57-2.91,1.25-4.3,1.94l-.7.35-.55-.53c-1.1-1.06-2.28-2.09-3.44-3.08a21.78,21.78,0,0,0-1.77-1.38c-.15-.09-.3-.2-.44-.27l-.2-.11s0,0-.08,0a2.35,2.35,0,0,0-.85,0,23.56,23.56,0,0,0-4.34,1.32C296.42,122.43,295,123,293.49,123.63Z" style="fill:#263238"></path><path d="M109.54,205.74a25,25,0,0,1,2.69-1.71,12,12,0,0,1,3-1.25,2.9,2.9,0,0,1,1-.05,1.57,1.57,0,0,1,.32.09l.22.11c.14.07.25.15.38.22a14.79,14.79,0,0,1,1.34,1c.84.68,1.6,1.4,2.38,2.15l-.83-.14a23.41,23.41,0,0,1,3.1-1.21,12.57,12.57,0,0,1,1.66-.4,6.41,6.41,0,0,1,.9-.08,4.46,4.46,0,0,1,.5,0,5.08,5.08,0,0,1,.52.15,5.78,5.78,0,0,1,1.47,1c.42.38.8.78,1.17,1.18a20.86,20.86,0,0,1,2,2.62c-.83-.71-1.63-1.43-2.47-2.09a12.71,12.71,0,0,0-1.27-1,5.33,5.33,0,0,0-1.27-.69,2.9,2.9,0,0,0-1.28.08,14.48,14.48,0,0,0-1.47.45c-1,.35-2,.77-2.91,1.21l-.47.21-.35-.36c-.72-.73-1.48-1.45-2.24-2.13a14.26,14.26,0,0,0-1.15-1l-.29-.19-.13-.08,0,0a1.69,1.69,0,0,0-.57,0,15.84,15.84,0,0,0-2.92.78C111.52,205,110.54,205.38,109.54,205.74Z" style="fill:#263238"></path><path d="M83.49,201.52a35.11,35.11,0,0,1,3-3.74,18.59,18.59,0,0,1,3.67-3.24,4,4,0,0,1,1.38-.57,2.69,2.69,0,0,1,.51,0l.36.05c.23,0,.43.08.65.12a23.24,23.24,0,0,1,2.36.72c1.53.55,3,1.2,4.43,1.88l-1.24.2a35.32,35.32,0,0,1,3.79-3.23,18.86,18.86,0,0,1,2.16-1.37,8.69,8.69,0,0,1,1.23-.57,5.19,5.19,0,0,1,.73-.19,7.09,7.09,0,0,1,.81,0,8.66,8.66,0,0,1,2.57.7,24.55,24.55,0,0,1,2.24,1.11,31.15,31.15,0,0,1,4.07,2.74c-1.52-.61-3-1.23-4.52-1.76-.75-.27-1.51-.53-2.26-.72a7.92,7.92,0,0,0-2.15-.36,4.57,4.57,0,0,0-1.76.75,19.14,19.14,0,0,0-1.86,1.36c-1.21,1-2.4,2-3.53,3.13l-.56.54-.68-.34c-1.37-.69-2.8-1.33-4.21-1.92a18.64,18.64,0,0,0-2.1-.79,3.07,3.07,0,0,0-.5-.13l-.22,0s0,0-.08,0a2.23,2.23,0,0,0-.82.26,23.09,23.09,0,0,0-3.75,2.53C85.92,199.51,84.72,200.52,83.49,201.52Z" style="fill:#263238"></path><path d="M256.31,116a35.39,35.39,0,0,1,2.95-3.74,18.73,18.73,0,0,1,3.68-3.25,4,4,0,0,1,1.38-.56,2.64,2.64,0,0,1,.5,0l.36,0c.24,0,.44.08.65.12a23.43,23.43,0,0,1,2.37.72c1.52.55,3,1.2,4.42,1.88l-1.24.2a35.43,35.43,0,0,1,3.8-3.23,20.25,20.25,0,0,1,2.15-1.38,10.1,10.1,0,0,1,1.24-.56,4.72,4.72,0,0,1,.72-.19,4.36,4.36,0,0,1,.81,0,8.37,8.37,0,0,1,2.57.7c.78.33,1.52.71,2.24,1.1a31.55,31.55,0,0,1,4.07,2.75c-1.52-.61-3-1.23-4.52-1.76a21.14,21.14,0,0,0-2.26-.72,7.49,7.49,0,0,0-2.14-.36,4.4,4.4,0,0,0-1.77.75,17.89,17.89,0,0,0-1.85,1.36c-1.22,1-2.41,2-3.53,3.13l-.57.54-.68-.34c-1.37-.69-2.8-1.33-4.2-1.93a21.62,21.62,0,0,0-2.1-.78,3.71,3.71,0,0,0-.5-.13l-.23,0s0,0-.08,0a2.52,2.52,0,0,0-.82.25A23.83,23.83,0,0,0,260,113C258.74,114,257.54,115,256.31,116Z" style="fill:#263238"></path></g><g id="freepik--Faucet--inject-146"><path d="M475.76,60.81c-.19,7-6.84,15.76-15.7,15.59s-14.62-8-16.68-9.35c-.64-.4-3.21-.77-6.48-1.09s-7.25-.46-10.6-.51h-.36c-3.35,0-7.29.18-10.59.51s-5.85.69-6.49,1.09c-2.06,1.32-7.82,9.17-16.68,9.35s-15.51-8.59-15.7-15.59,5-15.81,12.46-16.61,14.09,5.53,17.88,7.7c1.22.7,3.95,1.08,7.28,1.25,2.63.14,7.91.21,12.31.24s9.22-.11,11.73-.24c3.33-.17,6.06-.55,7.28-1.25,3.79-2.17,10.39-8.5,17.88-7.7S475.94,53.8,475.76,60.81Z" style="fill:#455a64"></path><path d="M439.2,53.09V66.21c-.71-.09-1.48-.17-2.3-.25-3.31-.33-7.25-.46-10.6-.51h-.36c-3.35,0-7.29.18-10.59.51-.82.08-1.59.16-2.31.25V53.09l1.06.06c2.63.14,7.91.21,12.31.24s9.22-.11,11.73-.24Z" style="fill:#37474f"></path><rect x="416.51" y="49.72" width="19.21" height="33.33" style="fill:#455a64"></rect><path d="M500,94.49v42.93s-104.92.35-106.6,1.47l-.48.35c-4.65,2.06-5.49,18.75-5.4,23.62H349.61c.18-8.6,1-38.52,3.53-43.75,1.92-4,10.44-12.32,18.51-17.89.83-.58,1.66-1.13,2.49-1.64q1-.64,2-1.2a19,19,0,0,1,7.26-2.66C385.44,95.57,484.93,94.54,500,94.49Z" style="fill:#455a64"></path><path d="M352.8,145.11a100.69,100.69,0,0,1,1-16.17,46.09,46.09,0,0,1,1.82-8l.36-1c.07-.16.11-.32.19-.5s.19-.38.29-.54a14.06,14.06,0,0,1,1.27-1.75c.9-1.08,1.84-2.07,2.81-3A109.69,109.69,0,0,1,373,103.67c1.1-.79,2.22-1.56,3.37-2.29A21.53,21.53,0,0,1,380,99.43c.18-.06.39-.11.56-.15l.51-.09c.33-.06.67-.1,1-.15.67-.09,1.35-.16,2-.21a29,29,0,0,1,4.06,0c-1.34.18-2.66.43-4,.72-.65.14-1.3.29-1.94.46l-1,.26-.48.13-.4.15a22.56,22.56,0,0,0-3.3,2.07c-1.08.77-2.13,1.59-3.18,2.42-2.1,1.65-4.14,3.38-6.16,5.13s-4,3.55-5.89,5.41c-.94.93-1.87,1.88-2.71,2.86a13.05,13.05,0,0,0-1.11,1.49,16.1,16.1,0,0,0-.74,1.68,53.36,53.36,0,0,0-2.07,7.64C354.24,134.44,353.5,139.76,352.8,145.11Z" style="fill:#fff;opacity:0.30000000000000004"></path><path d="M370.16,111.65a45,45,0,0,1,6.34-5.77,41.15,41.15,0,0,1,3.56-2.41,12.22,12.22,0,0,1,4-1.7,10.4,10.4,0,0,0-1.81,1.1c-.58.4-1.15.83-1.72,1.25l-3.39,2.56C374.83,108.37,372.58,110.09,370.16,111.65Z" style="fill:#fff;opacity:0.30000000000000004"></path><rect x="405.24" y="91.2" width="41.76" height="51.54" style="fill:#37474f"></rect><rect x="344.97" y="155.99" width="46.48" height="17.7" style="fill:#37474f"></rect><rect x="412.14" y="83.05" width="27.97" height="8.15" style="fill:#37474f"></rect><polygon points="440.1 91.2 412.14 91.2 412.14 88.29 440.1 89.26 440.1 91.2" style="fill:#263238"></polygon></g></svg>